<svg xmlns="http://www.w3.org/2000/svg" xmlns:xlink="http://www.w3.org/1999/xlink" width="24" height="24" version="1.1" viewBox="0 0 24 24"><title>icon-folder_out</title><desc>Created with Sketch.</desc><g id="24x24" fill="none" fill-rule="evenodd" stroke="none" stroke-width="1"><g id="icon-folder_out" fill="#67768A"><path id="Combined-Shape" d="M9.59690351,6 L5,6 L5,15 L4,15 L4,5 L4.5,5 L10,5 L10,5.01914273 L10.0151299,5.00401283 L12.0111171,7 L20,7 L20,8 L12.2630408,8 L12.2627563,8.00440469 L11.6013082,8.00440469 L9.59690351,6 Z M5,18 L20,18 L20,19 L4,19 L4,18.5 L4,15 L5,15 L5,18 Z M19,8 L20,8 L20,9 L19,9 L19,8 Z M19,17 L20,17 L20,18 L19,18 L19,17 Z M22,13 L18,17 L18,9 L22,13 Z M20.5857864,13 L19,11.4142136 L19,14.5857864 L20.5857864,13 Z M17,13.5 L10,13.5 L10,12.5 L17,12.5 L17,13.5 Z"/></g></g></svg>