<svg xmlns="http://www.w3.org/2000/svg" xmlns:xlink="http://www.w3.org/1999/xlink" width="24" height="24" version="1.1" viewBox="0 0 24 24"><title>icon-unpublish</title><desc>Created with Sketch.</desc><g id="24x24" fill="none" fill-rule="evenodd" stroke="none" stroke-width="1"><g id="icon-unpublish" fill="#5992C7"><path id="Combined-Shape" d="M19.5,22 L4,22 L4,21 L19,21 L19,10 L20,10 L20,22 L19.5,22 Z M14,9.1749993 L20.1931771,2.98182219 L20.9002839,3.68892897 L14.5892129,10 L18,10 L18,11 L13,11 L13,10.5 L13,6 L14,6 L14,9.1749993 Z M4.5,4 L14,4 L14,5 L5,5 L5,21 L4,21 L4,4 L4.5,4 Z M7,9 L12,9 L12,10 L7,10 L7,9 Z M7,13 L17,13 L17,14 L7,14 L7,13 Z M7,17 L17,17 L17,18 L7,18 L7,17 Z"/></g></g></svg>