<svg xmlns="http://www.w3.org/2000/svg" xmlns:xlink="http://www.w3.org/1999/xlink" width="24" height="24" version="1.1" viewBox="0 0 24 24"><g id="24x24" fill="none" fill-rule="evenodd" stroke="none" stroke-width="1"><g id="icon-download" fill="#9452BA"><path id="Combined-Shape" d="M11.5,15.4497475 L11.5,4 L12.5,4 L12.5,15.4497475 L16.9497475,11 L17.6568542,11.7071068 L12,17.363961 L6.34314575,11.7071068 L7.05025253,11 L11.5,15.4497475 Z M5,19 L19,19 L19,16 L20,16 L20,20 L19.5,20 L4.5,20 L4,20 L4,16 L5,16 L5,19 Z M16,15 L20,15 L20,16 L16,16 L16,15 Z M4,15 L8,15 L8,16 L4,16 L4,15 Z"/></g></g></svg>