<svg xmlns="http://www.w3.org/2000/svg" xmlns:xlink="http://www.w3.org/1999/xlink" width="24" height="24" version="1.1" viewBox="0 0 24 24"><title>Icons / grey / link</title><desc>Created with Sketch.</desc><g id="Icons-/-grey-/-link" fill="none" fill-rule="evenodd" stroke="none" stroke-width="1"><g id="icon" fill-rule="nonzero" stroke="#67768A" transform="translate(2.000000, 2.000000)"><path id="Shape" d="M6.81577749,9.6461975 C6.29471155,10.1672634 5.43229645,10.1496631 4.88951943,9.60688611 L0.958380528,5.67574721 C0.415603512,5.13297019 0.398003204,4.27055508 0.919069139,3.74948915 L3.74948915,0.919069139 C4.27055508,0.398003204 5.13297019,0.415603512 5.67574721,0.958380528 L9.60688611,4.88951943 C10.1496631,5.43229645 10.1672634,6.29471155 9.6461975,6.81577749"/><path id="shape" d="M10.5477642,12.7159575 C10.5477642,11.979059 11.1700291,11.3816847 11.9376317,11.3816847 L17.4971017,11.3816847 C18.2647043,11.3816847 18.8869691,11.979059 18.8869691,12.7159575 L18.8869691,16.7187759 C18.8869691,17.4556744 18.2647043,18.0530487 17.4971017,18.0530487 L11.9376317,18.0530487 C11.1700291,18.0530487 10.5477642,17.4556744 10.5477642,16.7187759" transform="translate(14.717367, 14.717367) rotate(-315.000000) translate(-14.717367, -14.717367)"/><path id="shape" stroke-linecap="round" d="M5.83039754,10 L14.1696025,10" transform="translate(10.000000, 10.000000) rotate(-315.000000) translate(-10.000000, -10.000000)"/></g></g></svg>