<svg xmlns="http://www.w3.org/2000/svg" xmlns:xlink="http://www.w3.org/1999/xlink" width="128" height="128" version="1.1" viewBox="0 0 128 128"><title>Artboard 1</title><desc>Created with Sketch.</desc><g id="Page-1" fill="none" fill-rule="evenodd" stroke="none" stroke-width="1"><g id="Artboard-1" fill="#A1A9B7"><g id="Rectangle-2-+-Fill-1"><path id="Rectangle-2" d="M0,53.3333333 L128,53.3333333 L128,101.333333 L0,101.333333 L0,53.3333333 L0,53.3333333 L0,53.3333333 Z M10,63 L118,63 L118,91 L10,91 L10,63 L10,63 L10,63 Z M64,26.6666667 L53.3333333,36.6666667 L128,36.6666667 L128,26.6666667 L64,26.6666667 Z M128,0 L48,0 L48,10 L128,10 L128,0 L128,0 Z M0,118 L128,118 L128,128 L0,128 L0,118 L0,118 Z"/><path id="Fill-1" d="M39.2730165,0 L13.0910055,0 L13.0910055,21.8180032 L0,21.8180032 L26.182011,48 L52.364022,21.8180032 L39.2730165,21.8180032"/></g></g></g></svg>