<svg xmlns="http://www.w3.org/2000/svg" xmlns:xlink="http://www.w3.org/1999/xlink" width="512" height="512" version="1.1" viewBox="0 0 512 512"><title>icon-edit</title><desc>Created with Sketch.</desc><g id="24x24" fill="none" fill-rule="evenodd" stroke="none" stroke-width="1"><g id="icon-edit" fill="#67768A"><path id="Combined-Shape" d="M398.071264,40.0708719 L398.142136,40 L464.141378,105.999242 L449.999242,120.141378 L449.918364,120.0605 L270.007712,299.971153 L270,299.963441 L270,300 L214,300 L204,300 L204,234 L398.000392,40 L398.071264,40.0708719 Z M398.071264,68.2133994 L224,242.284663 L224,280 L261.694593,280 L435.776229,105.918364 L398.071264,68.2133994 Z M90,472 L80,472 L80,40 L90,40 L232,40 L232,60 L100,60 L100,452 L411,452 L411,240 L432,240 L432,472 L421.5,472 L90,472 Z M148,280 L180,280 L180,300 L148,300 L148,280 Z M307,280 L363,280 L363,300 L307,300 L307,280 Z M148,108 L212,108 L212,128 L148,128 L148,108 Z M148,364 L363,364 L363,384 L148,384 L148,364 Z M251.142136,229 L274.071068,251.928932 L259.928932,266.071068 L237,243.142136 L251.142136,229 Z"/></g></g></svg>