<svg xmlns="http://www.w3.org/2000/svg" xmlns:xlink="http://www.w3.org/1999/xlink" width="512" height="512" version="1.1" viewBox="0 0 512 512"><title>icon-locale</title><desc>Created with Sketch.</desc><g id="24x24" fill="none" fill-rule="evenodd" stroke="none" stroke-width="1"><g id="icon-locale" fill="#67768A" fill-rule="nonzero"><path id="Combined-Shape" d="M213.008063,40 C213.008063,40 213.008063,40 213.008063,40 L462,40 L472,40 L472,300 L462,300 L290,300 L290,280 L452,280 L452,60 L245.250478,60 L308.812817,104 L310,104 L310,104.821808 L310.199619,104.959991 L310,105.226149 L310,364 L300,364 L60,364 L60,344 L290,344 L290,124 L60,124 L60,104 L200,104 L200,40 L210,40 L213.008063,40 Z M220,68.7720771 L220,104 L270.890209,104 L220,68.7720771 Z M40,80 L60,80 L60,472 L40,472 L40,80 Z"/></g></g></svg>